<?xml version="1.0"?>
<svg xmlns:rdf="http://www.w3.org/1999/02/22-rdf-syntax-ns#" xmlns="http://www.w3.org/2000/svg" xmlns:cc="http://web.resource.org/cc/" xmlns:dc="http://purl.org/dc/elements/1.1/" xmlns:svg="http://www.w3.org/2000/svg" viewBox="0 0 468 468" version="1.0">
  <g transform="translate(0 468) scale(.078 -.078)">
    <path d="m2420 5575c0-210-4-325-10-325-5 0-10-7-10-15 0-12-14-15-68-15-56 0-70-3-82-20-8-11-22-20-32-20s-18-4-18-10c0-5-24-10-53-10-41 0-56-4-67-20-9-13-26-20-47-20-18 0-33-5-33-11 0-19-28-39-54-39-14 0-26-4-26-10 0-5-7-10-15-10s-15-4-15-10c0-5-9-10-20-10s-20-4-20-10c0-5-9-10-20-10s-20-5-20-11c0-17-27-39-47-39-10 0-25-9-33-20s-22-20-32-20c-11 0-18-7-18-20 0-11-7-20-15-20s-15-7-15-15-8-15-18-15-24-9-32-20-22-20-32-20c-11 0-18-7-18-20 0-11-7-20-15-20-9 0-15-9-15-21s-13-34-30-49c-16-15-30-35-30-44s-4-16-10-16c-5 0-10-7-10-15s-4-15-10-15c-5 0-10-9-10-20s-7-20-15-20-15-9-15-20-4-20-10-20c-5 0-10-6-10-13s-9-19-20-27c-14-10-20-26-20-52 0-21-4-38-10-38-5 0-10-11-10-25 0-16-6-25-15-25-11 0-15-12-15-45 0-25-4-45-10-45-5 0-10-13-10-30 0-16-4-30-10-30s-10-43-10-110-4-110-10-110-10-35-10-85 4-85 10-85 10-43 10-110 4-110 10-110 10-20 10-45 5-45 10-45c6 0 10-20 10-45 0-33 4-45 15-45 8 0 15-9 15-20s5-20 10-20c6 0 10-13 10-30 0-16 5-30 10-30 6 0 10-7 10-15s5-15 10-15c6 0 10-12 10-26 0-26 20-54 39-54 6 0 11-11 11-25s5-25 10-25c6 0 10-7 10-16s14-29 30-44c17-15 30-37 30-49 0-16 6-21 25-21 18 0 25-5 25-20 0-12 7-20 16-20 15 0 44-23 44-35 0-13 50-55 66-55 9 0 29-14 44-30 15-17 37-30 49-30s21-6 21-15c0-8 9-15 20-15 13 0 20-7 20-20 0-16 7-20 30-20 17 0 30-4 30-10 0-5 7-10 15-10s15-4 15-10c0-5 14-10 30-10 20 0 30-5 30-15 0-9 9-15 25-15 14 0 25-4 25-10 0-5 14-10 30-10 17 0 30-4 30-10 0-5 9-10 20-10s20-4 20-10c0-5 20-10 45-10s45-4 45-10c0-5 16-10 35-10s35-4 35-10c0-5 14-10 30-10 20 0 30-5 30-15 0-9 9-15 25-15 14 0 25-4 25-10 0-5 14-10 30-10 17 0 30-4 30-10s28-10 65-10 65-4 65-10c0-5 11-10 25-10s25-4 25-10c0-5 18-10 40-10 29 0 40-4 40-15s12-15 45-15c25 0 45-4 45-10 0-5 25-10 55-10s55-4 55-10c0-5 25-10 55-10s55-4 55-10c0-5 9-10 20-10s20-4 20-10c0-5 16-10 35-10s35-4 35-10c0-5 18-10 40-10 29 0 40-4 40-15s12-15 45-15c25 0 45-4 45-10 0-5 9-10 20-10s20-4 20-10c0-5 10-10 23-10 12 0 29-9 37-20 9-13 26-20 47-20 18 0 33-4 33-10 0-5 9-10 20-10s20-7 20-15 5-15 10-15c6 0 10-9 10-20s5-20 10-20c6 0 10-9 10-20s5-20 10-20c6 0 10-33 10-80s-4-80-10-80c-5 0-10-13-10-28 0-16-8-34-20-42-11-8-20-18-20-23 0-18-30-37-59-37-17 0-31-4-31-10 0-5-20-10-45-10s-45-4-45-10-35-10-85-10-85-4-85-10-53-10-140-10-140 4-140 10-25 10-55 10-55 5-55 10c0 6-28 10-65 10s-65 4-65 10-25 10-55 10-55 5-55 10c0 6-16 10-35 10-24 0-35 5-35 15 0 8-9 15-20 15s-20 5-20 10c0 6-20 10-45 10s-45 5-45 10c0 6-9 10-20 10s-20 5-20 10c0 6-11 10-25 10s-25 5-25 10c0 6-13 10-30 10-20 0-30 5-30 15s-10 15-33 15c-21 0-38 7-47 20-10 14-26 20-52 20-21 0-38 5-38 10 0 6-6 10-13 10s-19 9-27 20-22 20-32 20-18 5-18 11c0 21-29 39-65 39-38 0-65 18-65 44 0 10-9 16-25 16s-25 6-25 15c0 10-10 15-30 15-24 0-30-4-30-21 0-22-22-49-39-49-6 0-11-4-11-10 0-5-9-10-20-10-16 0-20-7-20-35 0-19-4-35-10-35-5 0-10-9-10-20 0-13-7-20-20-20-17 0-20-7-20-45 0-25-5-45-10-45-19 0-60-48-60-70 0-11-4-20-10-20-5 0-10-7-10-15 0-18-43-65-60-65-5 0-10-11-10-25s-4-25-10-25c-5 0-10-9-10-20 0-13-7-20-20-20-16 0-20-7-20-31 0-30-19-59-39-59-6 0-11-9-11-20s-4-20-10-20c-5 0-10-9-10-20s-4-20-10-20c-5 0-10-7-10-15s-4-15-10-15c-5 0-10-9-10-20s-4-20-10-20c-5 0-10-9-10-20s-4-20-10-20c-5 0-10-7-10-15s-7-15-15-15-15-8-15-18-9-24-20-32c-39-28-18-100 29-100 12 0 21-4 21-10 0-5 9-10 20-10s20-4 20-10c0-5 7-10 16-10 18 0 44-23 44-39 0-6 11-11 25-11s25-4 25-10c0-5 9-10 20-10s20-4 20-10c0-5 11-10 25-10s25-4 25-10c0-5 9-10 20-10s20-4 20-10c0-5 9-10 20-10s20-4 20-10c0-5 16-10 35-10 24 0 35-5 35-15 0-8 9-15 20-15s20-4 20-10c0-5 9-10 20-10s20-4 20-10c0-5 16-10 35-10s35-4 35-10c0-5 16-10 35-10s35-4 35-10c0-5 14-10 30-10 20 0 30-5 30-15 0-8 9-15 20-15s20-4 20-10c0-5 16-10 35-10s35-4 35-10c0-5 25-10 55-10s55-4 55-10c0-5 9-10 20-10s20-4 20-10c0-5 20-10 45-10s45-4 45-10c0-5 20-10 45-10 33 0 45-4 45-15s11-15 40-15c22 0 40-4 40-10 0-5 11-10 25-10h25v-630h1240v311c0 331 1 339 49 339 12 0 21 6 21 15 0 10 10 15 30 15 17 0 30 5 30 10 0 6 20 10 45 10s45 5 45 10c0 6 14 10 30 10 17 0 30 5 30 10 0 6 16 10 35 10s35 5 35 10c0 6 9 10 20 10s20 5 20 10c0 6 16 10 35 10 24 0 35 5 35 15 0 8 9 15 20 15s20 5 20 10c0 6 9 10 20 10s20 5 20 10c0 6 9 10 20 10 22 0 70 41 70 60 0 5 14 10 31 10 23 0 40 10 69 40 21 22 46 40 55 40 17 0 45 23 45 37 0 5 9 15 20 23s20 21 20 30 9 22 20 30 20 20 20 27 5 13 10 13c15 0 60 47 60 62 0 8 9 20 20 28s20 25 20 37c0 14 6 23 15 23 8 0 15 9 15 20s5 20 10 20c6 0 10 11 10 25s5 25 10 25c6 0 10 9 10 20s5 20 10 20c6 0 10 9 10 20s5 20 10 20c6 0 10 11 10 25s5 25 10 25c6 0 10 18 10 40 0 29 4 40 15 40 12 0 15 13 15 55 0 30 5 55 10 55 6 0 10 25 10 55s5 55 10 55c6 0 10 68 10 185s-4 185-10 185-10 32-10 75-4 75-10 75c-5 0-10 20-10 45 0 33-4 45-15 45-10 0-15 11-15 35 0 19-4 35-10 35-5 0-10 9-10 20s-4 20-10 20c-5 0-10 16-10 35s-4 35-10 35c-5 0-10 9-10 20s-4 20-10 20c-5 0-10 14-10 31 0 27-19 59-35 59-19 0-55 52-55 80 0 23-4 30-20 30-11 0-20 5-20 10 0 6-5 10-10 10-19 0-60 48-60 70 0 16-6 20-30 20-23 0-30 4-30 20 0 11-7 20-15 20s-15 9-15 20c0 13-7 20-20 20-11 0-20 5-20 10 0 6-9 10-20 10s-20 7-20 15c0 10-11 15-35 15-28 0-35 4-35 20s-7 20-30 20c-16 0-30 5-30 10 0 6-7 10-15 10s-15 5-15 10c0 6-9 10-20 10s-20 7-20 15c0 10-10 15-30 15-16 0-30 5-30 10 0 6-11 10-25 10s-25 5-25 10c0 6-9 10-20 10s-20 5-20 10c0 6-16 10-35 10-28 0-35 4-35 20 0 18-7 20-65 20-40 0-65 4-65 11 0 19-28 39-54 39-14 0-26 5-26 10 0 6-16 10-35 10s-35 5-35 10c0 6-16 10-35 10s-35 5-35 10c0 6-18 10-40 10-29 0-40 4-40 15s-12 15-45 15c-25 0-45 5-45 10 0 6-20 10-45 10s-45 5-45 10c0 6-18 10-40 10s-40 5-40 10c0 6-25 10-55 10s-55 5-55 10c0 6-20 10-45 10s-45 5-45 10c0 6-20 10-45 10-33 0-45 4-45 15 0 10-10 15-30 15-16 0-30 5-30 10 0 6-16 10-35 10s-35 5-35 10c0 6-13 10-30 10-16 0-30 5-30 10 0 6-7 10-15 10s-15 5-15 10c0 6-22 10-50 10-47 0-50 2-50 25 0 18-5 25-20 25-27 0-90 63-90 90 0 11-7 20-15 20-11 0-15 12-15 50s4 50 15 50c9 0 15 9 15 25 0 14 5 25 10 25 6 0 10 14 10 30 0 17 5 30 10 30 6 0 10 7 10 15s9 15 20 15 20 5 20 10c0 6 11 10 25 10s25 5 25 10c0 6 14 10 30 10 17 0 30 5 30 10 0 6 87 10 240 10s240-4 240-10 32-10 75-10 75-4 75-10c0-5 20-10 45-10s45-4 45-10c0-5 25-10 55-10 42 0 55-3 55-15 0-8 9-15 20-15s20-4 20-10c0-5 11-10 25-10s25-4 25-10c0-5 14-10 30-10 17 0 30-4 30-10 0-5 16-10 35-10s35-4 35-10c0-5 9-10 20-10s20-5 20-11c0-17 27-39 49-39 12 0 21-4 21-10 0-5 13-10 28-10 16 0 34-8 42-20 8-11 20-20 27-20s13-4 13-10c0-5 14-10 30-10 20 0 30-5 30-15 0-9 9-15 23-15 12 0 29-9 37-20s21-20 30-20 22-9 30-20c9-13 26-20 47-20 32 0 33 1 33 40 0 22 5 40 10 40 6 0 10 7 10 15s5 15 10 15c6 0 10 9 10 20 0 15 7 20 25 20s25 5 25 20c0 11 5 20 10 20 6 0 10 11 10 25s5 25 10 25c6 0 10 8 10 18s9 24 20 32 20 23 20 33c0 20 22 47 39 47 6 0 11 8 11 18s9 24 20 32 20 25 20 37c0 13 5 23 10 23 6 0 10 8 10 18s9 24 20 32 20 25 20 37c0 13 5 23 10 23 21 0 60 49 60 75 0 14 5 25 10 25 6 0 10 7 10 15s5 15 10 15c6 0 10 9 10 20s5 20 11 20c16 0 39 26 39 45 0 9 14 30 30 45 18 17 30 38 30 54 0 14 5 26 10 26 6 0 10 9 10 21 0 22-22 49-40 49-14 0-60 46-60 60 0 5-11 10-25 10s-25 5-25 10c0 6-9 10-20 10s-20 5-20 10c0 6-11 10-25 10s-25 5-25 10c0 6-8 10-18 10s-24 9-32 20c-9 13-26 20-47 20-18 0-33 5-33 11 0 16-26 39-44 39-9 0-16 5-16 10 0 6-9 10-20 10s-20 5-20 10c0 6-11 10-25 10s-25 5-25 10c0 6-20 10-45 10-33 0-45 4-45 15 0 8-9 15-20 15s-20 5-20 10c0 6-13 10-30 10-16 0-30 5-30 10 0 6-25 10-55 10s-55 5-55 10c0 6-11 10-25 10s-25 5-25 10c0 6-25 10-55 10s-55 5-55 10c0 6-9 10-20 10s-20 7-20 15c0 12-14 15-65 15h-65v650h-1240v-325z"/>
  </g>
  <metadata>
    <rdf:RDF>
      <cc:Work>
        <dc:format>image/svg+xml</dc:format>
        <dc:type rdf:resource="http://purl.org/dc/dcmitype/StillImage"/>
        <cc:license rdf:resource="http://creativecommons.org/licenses/publicdomain/"/>
        <dc:publisher>
          <cc:Agent rdf:about="http://openclipart.org/">
            <dc:title>Openclipart</dc:title>
          </cc:Agent>
        </dc:publisher>
        <dc:title>Money 7</dc:title>
        <dc:date>2012-02-06T15:16:41</dc:date>
        <dc:description>A Dollar Sign</dc:description>
        <dc:source>http://openclipart.org/detail/167782/money-7-by-dripsandcastle</dc:source>
        <dc:creator>
          <cc:Agent>
            <dc:title>dripsandcastle</dc:title>
          </cc:Agent>
        </dc:creator>
        <dc:subject>
          <rdf:Bag>
            <rdf:li>clip art</rdf:li>
            <rdf:li>clipart</rdf:li>
            <rdf:li>dollar</rdf:li>
            <rdf:li>dollar sign</rdf:li>
            <rdf:li>money</rdf:li>
          </rdf:Bag>
        </dc:subject>
      </cc:Work>
      <cc:License rdf:about="http://creativecommons.org/licenses/publicdomain/">
        <cc:permits rdf:resource="http://creativecommons.org/ns#Reproduction"/>
        <cc:permits rdf:resource="http://creativecommons.org/ns#Distribution"/>
        <cc:permits rdf:resource="http://creativecommons.org/ns#DerivativeWorks"/>
      </cc:License>
    </rdf:RDF>
  </metadata>
</svg>
